<svg xmlns="http://www.w3.org/2000/svg" viewBox="0 0 48 48"><title>Telephone conversation</title><g id="Telephone_conversation" data-name="Telephone conversation"><path d="M35.78,33.43a3,3,0,0,0-4.24,0c-3.74,3.73-3.68,3.87-4.4,3.68-8.6-2.35-13.91-7.65-16.26-16.26-.21-.8.47-1.14,1.65-2.36,2-2,2.91-2.59,2.91-4.16,0-1.75-.88-2.12-6.53-7.77a3,3,0,0,0-4.25,0C2.1,9.13.17,10.55,0,13.75A32.84,32.84,0,0,0,32.84,48c4.61,0,5.16-1.23,8.59-4.66a3,3,0,0,0,0-4.25ZM7.49,8c7,7,6.93,5.8,4.32,8.41L4.74,9.32,6.08,8A1,1,0,0,1,7.49,8ZM34.17,46A30.84,30.84,0,0,1,2,13.83a4.85,4.85,0,0,1,1.3-3.08l7.06,7.06c-.74.74-1.94,1.73-1.43,3.57C11.49,30.67,17.32,36.51,26.62,39c1.79.49,2.78-.64,3.57-1.43l7.06,7.06A4.85,4.85,0,0,1,34.17,46Zm4.51-2.71-7.07-7.07L33,34.85a1,1,0,0,1,1.41,0c6,6,6,5.78,6,6.36S40,41.92,38.68,43.26Z"/><path d="M35,0C24.15,0,18.18,10.59,24.71,17.72c-1.8,5.39-2,5.4-1.43,6a1,1,0,0,0,1,.26c10.9-3.35,5.63-2,10.71-2,7.17,0,13-4.93,13-11S42.17,0,35,0Zm0,20c-5.34,0,.18-1.49-9.43,1.47,1.26-3.77,1.58-4.14,1-4.72C20.57,10.9,25.73,2,35,2c6.07,0,11,4,11,9S41.07,20,35,20Z"/><path d="M30,8h6a1,1,0,0,0,0-2H30A1,1,0,0,0,30,8Z"/><path d="M40,10H30a1,1,0,0,0,0,2H40A1,1,0,0,0,40,10Z"/><path d="M40,14H30a1,1,0,0,0,0,2H40A1,1,0,0,0,40,14Z"/></g></svg>